# xmcd
#
# Track frame offsets: 
#        150
#        21728
#        35198
#        53633
#        69532
#        89144
#        110980
#        131325
#        150261
#        162889
#        186803
#
# Disc length: 2860 seconds
#
# Revision: 1
# Processed by: cddbd v1.5.2PL0 Copyright (c) Steve Scherf et al.
# Submitted via: ExactAudioCopyFreeDBPlugin 1.0
#
DISCID=9b0b2a0b
DTITLE=SP Just Frost - Peace In The Valley
DYEAR=2003
DGENRE=Blues
TTITLE0=Peace In The Valley
TTITLE1=Come Into My House
TTITLE2=Yo' Gabba
TTITLE3=When Love Is Here To Stay
TTITLE4=Junco Partner
TTITLE5=When You Came To Me
TTITLE6=I've Seen The Light
TTITLE7=People Get Ready
TTITLE8=Downheart Blues
TTITLE9=Love And Harmony
TTITLE10=Baby, I Love You
EXTD=
EXTT0=
EXTT1=
EXTT2=
EXTT3=
EXTT4=
EXTT5=
EXTT6=
EXTT7=
EXTT8=
EXTT9=
EXTT10=
PLAYORDER=
